<svg width="193" height="225" viewBox="0 0 193 225" fill="none" xmlns="http://www.w3.org/2000/svg">
<path d="M178.78 23.25L48.53 0.25C44.3516 -0.485293 40.0522 0.469046 36.5774 2.90315C33.1025 5.33726 30.7366 9.05183 30 13.23L0.250012 182.23C-0.113858 184.3 -0.0661897 186.422 0.390294 188.474C0.846778 190.526 1.70313 192.468 2.91041 194.189C4.11769 195.91 5.65224 197.376 7.42636 198.503C9.20048 199.631 11.1794 200.398 13.25 200.76L143.5 223.76C145.571 224.125 147.694 224.079 149.747 223.623C151.8 223.167 153.743 222.311 155.465 221.104C157.187 219.896 158.654 218.361 159.782 216.586C160.91 214.811 161.678 212.832 162.04 210.76L191.79 41.76C192.519 37.5803 191.558 33.2822 189.118 29.811C186.678 26.3398 182.96 23.9798 178.78 23.25ZM146.26 208L16 185L45.75 16L176 39L146.26 208ZM57.34 42.42C57.7106 40.3317 58.8952 38.4761 60.6335 37.2609C62.3718 36.0458 64.5215 35.5707 66.61 35.94L149.61 50.59C151.583 50.9356 153.354 52.0084 154.574 53.5965C155.794 55.1846 156.374 57.1726 156.199 59.1676C156.025 61.1626 155.108 63.0195 153.631 64.3716C152.153 65.7236 150.223 66.4724 148.22 66.47C147.751 66.4694 147.282 66.4292 146.82 66.35L63.82 51.69C61.7317 51.3194 59.8761 50.1348 58.6609 48.3965C57.4458 46.6582 56.9707 44.5085 57.34 42.42ZM51.8 73.94C51.9823 72.9051 52.3668 71.9162 52.9314 71.0299C53.496 70.1436 54.2296 69.3772 55.0905 68.7746C55.9513 68.1719 56.9225 67.7447 57.9485 67.5174C58.9745 67.2901 60.0352 67.2672 61.07 67.45L144.07 82.11C146.056 82.4422 147.845 83.5115 149.077 85.1043C150.31 86.6971 150.896 88.6963 150.719 90.7025C150.543 92.7088 149.616 94.5746 148.124 95.9273C146.631 97.2801 144.684 98.0202 142.67 98C142.197 98.0009 141.725 97.9574 141.26 97.87L58.26 83.22C56.1734 82.8449 54.3209 81.6568 53.1097 79.9168C51.8984 78.1768 51.4273 76.0271 51.8 73.94ZM46.25 105.45C46.6275 103.367 47.8151 101.519 49.5526 100.31C51.2901 99.1011 53.4359 98.63 55.52 99L97 106.29C98.9717 106.635 100.742 107.707 101.962 109.295C103.182 110.882 103.763 112.868 103.59 114.863C103.416 116.857 102.502 118.714 101.026 120.066C99.5508 121.419 97.6218 122.17 95.62 122.17C95.1508 122.17 94.6824 122.13 94.22 122.05L52.72 114.72C50.6336 114.347 48.7804 113.161 47.5673 111.423C46.3543 109.685 45.8805 107.537 46.25 105.45Z" fill="#F8F8F8"/>
</svg>
