<svg width="256" height="256" viewBox="0 0 256 256" fill="none" xmlns="http://www.w3.org/2000/svg">
<path d="M216 26H40C36.287 26 32.726 27.475 30.1005 30.1005C27.475 32.726 26 36.287 26 40V216C26 219.713 27.475 223.274 30.1005 225.899C32.726 228.525 36.287 230 40 230H216C219.713 230 223.274 228.525 225.899 225.899C228.525 223.274 230 219.713 230 216V40C230 36.287 228.525 32.726 225.899 30.1005C223.274 27.475 219.713 26 216 26ZM218 216C218 216.53 217.789 217.039 217.414 217.414C217.039 217.789 216.53 218 216 218H40C39.4696 218 38.9609 217.789 38.5858 217.414C38.2107 217.039 38 216.53 38 216V40C38 39.4696 38.2107 38.9609 38.5858 38.5858C38.9609 38.2107 39.4696 38 40 38H216C216.53 38 217.039 38.2107 217.414 38.5858C217.789 38.9609 218 39.4696 218 40V216ZM94 112V176C94 177.591 93.3679 179.117 92.2426 180.243C91.1174 181.368 89.5913 182 88 182C86.4087 182 84.8826 181.368 83.7574 180.243C82.6321 179.117 82 177.591 82 176V112C82 110.409 82.6321 108.883 83.7574 107.757C84.8826 106.632 86.4087 106 88 106C89.5913 106 91.1174 106.632 92.2426 107.757C93.3679 108.883 94 110.409 94 112ZM182 140V176C182 177.591 181.368 179.117 180.243 180.243C179.117 181.368 177.591 182 176 182C174.409 182 172.883 181.368 171.757 180.243C170.632 179.117 170 177.591 170 176V140C170 134.165 167.682 128.569 163.556 124.444C159.431 120.318 153.835 118 148 118C142.165 118 136.569 120.318 132.444 124.444C128.318 128.569 126 134.165 126 140V176C126 177.591 125.368 179.117 124.243 180.243C123.117 181.368 121.591 182 120 182C118.409 182 116.883 181.368 115.757 180.243C114.632 179.117 114 177.591 114 176V112C114 110.409 114.632 108.883 115.757 107.757C116.883 106.632 118.409 106 120 106C121.591 106 123.117 106.632 124.243 107.757C125.368 108.883 126 110.409 126 112V114.11C130.945 109.914 136.987 107.219 143.413 106.344C149.839 105.469 156.381 106.45 162.268 109.172C168.155 111.893 173.14 116.242 176.636 121.704C180.133 127.166 181.994 133.515 182 140ZM98 84C98 85.9778 97.4135 87.9112 96.3147 89.5557C95.2159 91.2002 93.6541 92.4819 91.8268 93.2388C89.9996 93.9957 87.9889 94.1937 86.0491 93.8079C84.1093 93.422 82.3275 92.4696 80.9289 91.0711C79.5304 89.6725 78.578 87.8907 78.1921 85.9509C77.8063 84.0111 78.0043 82.0004 78.7612 80.1732C79.5181 78.3459 80.7998 76.7841 82.4443 75.6853C84.0888 74.5865 86.0222 74 88 74C90.6522 74 93.1957 75.0536 95.0711 76.9289C96.9464 78.8043 98 81.3478 98 84Z" fill="#F8F8F8"/>
</svg>
