<svg width="256" height="256" viewBox="0 0 256 256" fill="none" xmlns="http://www.w3.org/2000/svg">
<path d="M176 160C170.663 159.998 165.381 161.067 160.465 163.144C155.549 165.221 151.099 168.263 147.38 172.09L101.28 142.46C104.906 133.161 104.906 122.839 101.28 113.54L147.38 83.91C154.305 91.0032 163.616 95.2725 173.51 95.8903C183.403 96.508 193.174 93.4302 200.927 87.2535C208.68 81.0767 213.863 72.2412 215.472 62.4599C217.081 52.6785 215.001 42.6483 209.634 34.3137C204.268 25.9791 195.998 19.9341 186.428 17.3505C176.858 14.7669 166.669 15.8289 157.837 20.3305C149.006 24.8322 142.16 32.4528 138.628 41.7149C135.096 50.977 135.129 61.2207 138.72 70.46L92.62 100.09C87.0687 94.3908 79.9439 90.4764 72.1564 88.8474C64.3689 87.2184 56.2725 87.9487 48.9023 90.945C41.532 93.9413 35.2226 99.0674 30.7808 105.668C26.3389 112.269 23.9663 120.044 23.9663 128C23.9663 135.956 26.3389 143.731 30.7808 150.332C35.2226 156.933 41.532 162.059 48.9023 165.055C56.2725 168.051 64.3689 168.782 72.1564 167.153C79.9439 165.524 87.0687 161.609 92.62 155.91L138.72 185.54C135.632 193.505 135.175 202.25 137.416 210.494C139.657 218.738 144.479 226.047 151.175 231.353C157.871 236.658 166.09 239.68 174.628 239.976C183.166 240.272 191.574 237.827 198.622 232.999C205.67 228.171 210.986 221.213 213.794 213.144C216.601 205.075 216.751 196.32 214.222 188.16C211.694 180 206.619 172.863 199.741 167.796C192.863 162.729 184.543 159.997 176 160ZM176 32C180.747 32 185.387 33.4076 189.334 36.0447C193.28 38.6819 196.357 42.4302 198.173 46.8156C199.99 51.201 200.465 56.0266 199.539 60.6822C198.613 65.3377 196.327 69.6141 192.971 72.9706C189.614 76.327 185.338 78.6128 180.682 79.5388C176.027 80.4649 171.201 79.9896 166.816 78.1731C162.43 76.3566 158.682 73.2805 156.045 69.3337C153.408 65.3869 152 60.7467 152 56C152 49.6348 154.529 43.5303 159.029 39.0294C163.53 34.5286 169.635 32 176 32ZM64 152C59.2532 152 54.6131 150.592 50.6663 147.955C46.7195 145.318 43.6434 141.57 41.8269 137.184C40.0104 132.799 39.5351 127.973 40.4612 123.318C41.3872 118.662 43.673 114.386 47.0294 111.029C50.3859 107.673 54.6623 105.387 59.3178 104.461C63.9734 103.535 68.799 104.01 73.1844 105.827C77.5698 107.643 81.3181 110.72 83.9553 114.666C86.5924 118.613 88 123.253 88 128C88 134.365 85.4714 140.47 80.9706 144.971C76.4697 149.471 70.3652 152 64 152ZM176 224C171.253 224 166.613 222.592 162.666 219.955C158.72 217.318 155.643 213.57 153.827 209.184C152.01 204.799 151.535 199.973 152.461 195.318C153.387 190.662 155.673 186.386 159.029 183.029C162.386 179.673 166.662 177.387 171.318 176.461C175.973 175.535 180.799 176.01 185.184 177.827C189.57 179.643 193.318 182.72 195.955 186.666C198.592 190.613 200 195.253 200 200C200 206.365 197.471 212.47 192.971 216.971C188.47 221.471 182.365 224 176 224Z" fill="#F8F8F8"/>
</svg>
